%TF.GenerationSoftware,KiCad,Pcbnew,7.0.11+1*%
%TF.CreationDate,2024-05-13T22:14:03+02:00*%
%TF.ProjectId,QL_ROM_Switchable,514c5f52-4f4d-45f5-9377-697463686162,rev?*%
%TF.SameCoordinates,Original*%
%TF.FileFunction,Legend,Bot*%
%TF.FilePolarity,Positive*%
%FSLAX46Y46*%
G04 Gerber Fmt 4.6, Leading zero omitted, Abs format (unit mm)*
G04 Created by KiCad (PCBNEW 7.0.11+1) date 2024-05-13 22:14:03*
%MOMM*%
%LPD*%
G01*
G04 APERTURE LIST*
%ADD10C,0.150000*%
%ADD11C,0.120000*%
G04 APERTURE END LIST*
D10*
X134099819Y-75748570D02*
X133099819Y-75748570D01*
X133433152Y-76224760D02*
X134099819Y-76224760D01*
X133528390Y-76224760D02*
X133480771Y-76272379D01*
X133480771Y-76272379D02*
X133433152Y-76367617D01*
X133433152Y-76367617D02*
X133433152Y-76510474D01*
X133433152Y-76510474D02*
X133480771Y-76605712D01*
X133480771Y-76605712D02*
X133576009Y-76653331D01*
X133576009Y-76653331D02*
X134099819Y-76653331D01*
X133433152Y-76986665D02*
X133433152Y-77367617D01*
X133099819Y-77129522D02*
X133956961Y-77129522D01*
X133956961Y-77129522D02*
X134052200Y-77177141D01*
X134052200Y-77177141D02*
X134099819Y-77272379D01*
X134099819Y-77272379D02*
X134099819Y-77367617D01*
X134052200Y-78081903D02*
X134099819Y-77986665D01*
X134099819Y-77986665D02*
X134099819Y-77796189D01*
X134099819Y-77796189D02*
X134052200Y-77700951D01*
X134052200Y-77700951D02*
X133956961Y-77653332D01*
X133956961Y-77653332D02*
X133576009Y-77653332D01*
X133576009Y-77653332D02*
X133480771Y-77700951D01*
X133480771Y-77700951D02*
X133433152Y-77796189D01*
X133433152Y-77796189D02*
X133433152Y-77986665D01*
X133433152Y-77986665D02*
X133480771Y-78081903D01*
X133480771Y-78081903D02*
X133576009Y-78129522D01*
X133576009Y-78129522D02*
X133671247Y-78129522D01*
X133671247Y-78129522D02*
X133766485Y-77653332D01*
X134099819Y-78558094D02*
X133433152Y-78558094D01*
X133623628Y-78558094D02*
X133528390Y-78605713D01*
X133528390Y-78605713D02*
X133480771Y-78653332D01*
X133480771Y-78653332D02*
X133433152Y-78748570D01*
X133433152Y-78748570D02*
X133433152Y-78843808D01*
X133433152Y-79177142D02*
X134099819Y-79177142D01*
X133528390Y-79177142D02*
X133480771Y-79224761D01*
X133480771Y-79224761D02*
X133433152Y-79319999D01*
X133433152Y-79319999D02*
X133433152Y-79462856D01*
X133433152Y-79462856D02*
X133480771Y-79558094D01*
X133480771Y-79558094D02*
X133576009Y-79605713D01*
X133576009Y-79605713D02*
X134099819Y-79605713D01*
X134099819Y-80510475D02*
X133576009Y-80510475D01*
X133576009Y-80510475D02*
X133480771Y-80462856D01*
X133480771Y-80462856D02*
X133433152Y-80367618D01*
X133433152Y-80367618D02*
X133433152Y-80177142D01*
X133433152Y-80177142D02*
X133480771Y-80081904D01*
X134052200Y-80510475D02*
X134099819Y-80415237D01*
X134099819Y-80415237D02*
X134099819Y-80177142D01*
X134099819Y-80177142D02*
X134052200Y-80081904D01*
X134052200Y-80081904D02*
X133956961Y-80034285D01*
X133956961Y-80034285D02*
X133861723Y-80034285D01*
X133861723Y-80034285D02*
X133766485Y-80081904D01*
X133766485Y-80081904D02*
X133718866Y-80177142D01*
X133718866Y-80177142D02*
X133718866Y-80415237D01*
X133718866Y-80415237D02*
X133671247Y-80510475D01*
X134099819Y-81129523D02*
X134052200Y-81034285D01*
X134052200Y-81034285D02*
X133956961Y-80986666D01*
X133956961Y-80986666D02*
X133099819Y-80986666D01*
X134099819Y-82843809D02*
X133623628Y-82510476D01*
X134099819Y-82272381D02*
X133099819Y-82272381D01*
X133099819Y-82272381D02*
X133099819Y-82653333D01*
X133099819Y-82653333D02*
X133147438Y-82748571D01*
X133147438Y-82748571D02*
X133195057Y-82796190D01*
X133195057Y-82796190D02*
X133290295Y-82843809D01*
X133290295Y-82843809D02*
X133433152Y-82843809D01*
X133433152Y-82843809D02*
X133528390Y-82796190D01*
X133528390Y-82796190D02*
X133576009Y-82748571D01*
X133576009Y-82748571D02*
X133623628Y-82653333D01*
X133623628Y-82653333D02*
X133623628Y-82272381D01*
X133099819Y-83462857D02*
X133099819Y-83653333D01*
X133099819Y-83653333D02*
X133147438Y-83748571D01*
X133147438Y-83748571D02*
X133242676Y-83843809D01*
X133242676Y-83843809D02*
X133433152Y-83891428D01*
X133433152Y-83891428D02*
X133766485Y-83891428D01*
X133766485Y-83891428D02*
X133956961Y-83843809D01*
X133956961Y-83843809D02*
X134052200Y-83748571D01*
X134052200Y-83748571D02*
X134099819Y-83653333D01*
X134099819Y-83653333D02*
X134099819Y-83462857D01*
X134099819Y-83462857D02*
X134052200Y-83367619D01*
X134052200Y-83367619D02*
X133956961Y-83272381D01*
X133956961Y-83272381D02*
X133766485Y-83224762D01*
X133766485Y-83224762D02*
X133433152Y-83224762D01*
X133433152Y-83224762D02*
X133242676Y-83272381D01*
X133242676Y-83272381D02*
X133147438Y-83367619D01*
X133147438Y-83367619D02*
X133099819Y-83462857D01*
X134099819Y-84320000D02*
X133099819Y-84320000D01*
X133099819Y-84320000D02*
X133814104Y-84653333D01*
X133814104Y-84653333D02*
X133099819Y-84986666D01*
X133099819Y-84986666D02*
X134099819Y-84986666D01*
X133099819Y-86224762D02*
X133909342Y-86224762D01*
X133909342Y-86224762D02*
X134004580Y-86272381D01*
X134004580Y-86272381D02*
X134052200Y-86320000D01*
X134052200Y-86320000D02*
X134099819Y-86415238D01*
X134099819Y-86415238D02*
X134099819Y-86605714D01*
X134099819Y-86605714D02*
X134052200Y-86700952D01*
X134052200Y-86700952D02*
X134004580Y-86748571D01*
X134004580Y-86748571D02*
X133909342Y-86796190D01*
X133909342Y-86796190D02*
X133099819Y-86796190D01*
X133433152Y-87272381D02*
X134433152Y-87272381D01*
X133480771Y-87272381D02*
X133433152Y-87367619D01*
X133433152Y-87367619D02*
X133433152Y-87558095D01*
X133433152Y-87558095D02*
X133480771Y-87653333D01*
X133480771Y-87653333D02*
X133528390Y-87700952D01*
X133528390Y-87700952D02*
X133623628Y-87748571D01*
X133623628Y-87748571D02*
X133909342Y-87748571D01*
X133909342Y-87748571D02*
X134004580Y-87700952D01*
X134004580Y-87700952D02*
X134052200Y-87653333D01*
X134052200Y-87653333D02*
X134099819Y-87558095D01*
X134099819Y-87558095D02*
X134099819Y-87367619D01*
X134099819Y-87367619D02*
X134052200Y-87272381D01*
X133433152Y-88605714D02*
X134242676Y-88605714D01*
X134242676Y-88605714D02*
X134337914Y-88558095D01*
X134337914Y-88558095D02*
X134385533Y-88510476D01*
X134385533Y-88510476D02*
X134433152Y-88415238D01*
X134433152Y-88415238D02*
X134433152Y-88272381D01*
X134433152Y-88272381D02*
X134385533Y-88177143D01*
X134052200Y-88605714D02*
X134099819Y-88510476D01*
X134099819Y-88510476D02*
X134099819Y-88320000D01*
X134099819Y-88320000D02*
X134052200Y-88224762D01*
X134052200Y-88224762D02*
X134004580Y-88177143D01*
X134004580Y-88177143D02*
X133909342Y-88129524D01*
X133909342Y-88129524D02*
X133623628Y-88129524D01*
X133623628Y-88129524D02*
X133528390Y-88177143D01*
X133528390Y-88177143D02*
X133480771Y-88224762D01*
X133480771Y-88224762D02*
X133433152Y-88320000D01*
X133433152Y-88320000D02*
X133433152Y-88510476D01*
X133433152Y-88510476D02*
X133480771Y-88605714D01*
X134099819Y-89081905D02*
X133433152Y-89081905D01*
X133623628Y-89081905D02*
X133528390Y-89129524D01*
X133528390Y-89129524D02*
X133480771Y-89177143D01*
X133480771Y-89177143D02*
X133433152Y-89272381D01*
X133433152Y-89272381D02*
X133433152Y-89367619D01*
X134099819Y-90129524D02*
X133576009Y-90129524D01*
X133576009Y-90129524D02*
X133480771Y-90081905D01*
X133480771Y-90081905D02*
X133433152Y-89986667D01*
X133433152Y-89986667D02*
X133433152Y-89796191D01*
X133433152Y-89796191D02*
X133480771Y-89700953D01*
X134052200Y-90129524D02*
X134099819Y-90034286D01*
X134099819Y-90034286D02*
X134099819Y-89796191D01*
X134099819Y-89796191D02*
X134052200Y-89700953D01*
X134052200Y-89700953D02*
X133956961Y-89653334D01*
X133956961Y-89653334D02*
X133861723Y-89653334D01*
X133861723Y-89653334D02*
X133766485Y-89700953D01*
X133766485Y-89700953D02*
X133718866Y-89796191D01*
X133718866Y-89796191D02*
X133718866Y-90034286D01*
X133718866Y-90034286D02*
X133671247Y-90129524D01*
X134099819Y-91034286D02*
X133099819Y-91034286D01*
X134052200Y-91034286D02*
X134099819Y-90939048D01*
X134099819Y-90939048D02*
X134099819Y-90748572D01*
X134099819Y-90748572D02*
X134052200Y-90653334D01*
X134052200Y-90653334D02*
X134004580Y-90605715D01*
X134004580Y-90605715D02*
X133909342Y-90558096D01*
X133909342Y-90558096D02*
X133623628Y-90558096D01*
X133623628Y-90558096D02*
X133528390Y-90605715D01*
X133528390Y-90605715D02*
X133480771Y-90653334D01*
X133480771Y-90653334D02*
X133433152Y-90748572D01*
X133433152Y-90748572D02*
X133433152Y-90939048D01*
X133433152Y-90939048D02*
X133480771Y-91034286D01*
X134052200Y-91891429D02*
X134099819Y-91796191D01*
X134099819Y-91796191D02*
X134099819Y-91605715D01*
X134099819Y-91605715D02*
X134052200Y-91510477D01*
X134052200Y-91510477D02*
X133956961Y-91462858D01*
X133956961Y-91462858D02*
X133576009Y-91462858D01*
X133576009Y-91462858D02*
X133480771Y-91510477D01*
X133480771Y-91510477D02*
X133433152Y-91605715D01*
X133433152Y-91605715D02*
X133433152Y-91796191D01*
X133433152Y-91796191D02*
X133480771Y-91891429D01*
X133480771Y-91891429D02*
X133576009Y-91939048D01*
X133576009Y-91939048D02*
X133671247Y-91939048D01*
X133671247Y-91939048D02*
X133766485Y-91462858D01*
X135186009Y-78653332D02*
X135186009Y-78319999D01*
X135709819Y-78319999D02*
X134709819Y-78319999D01*
X134709819Y-78319999D02*
X134709819Y-78796189D01*
X135709819Y-79319999D02*
X135662200Y-79224761D01*
X135662200Y-79224761D02*
X135614580Y-79177142D01*
X135614580Y-79177142D02*
X135519342Y-79129523D01*
X135519342Y-79129523D02*
X135233628Y-79129523D01*
X135233628Y-79129523D02*
X135138390Y-79177142D01*
X135138390Y-79177142D02*
X135090771Y-79224761D01*
X135090771Y-79224761D02*
X135043152Y-79319999D01*
X135043152Y-79319999D02*
X135043152Y-79462856D01*
X135043152Y-79462856D02*
X135090771Y-79558094D01*
X135090771Y-79558094D02*
X135138390Y-79605713D01*
X135138390Y-79605713D02*
X135233628Y-79653332D01*
X135233628Y-79653332D02*
X135519342Y-79653332D01*
X135519342Y-79653332D02*
X135614580Y-79605713D01*
X135614580Y-79605713D02*
X135662200Y-79558094D01*
X135662200Y-79558094D02*
X135709819Y-79462856D01*
X135709819Y-79462856D02*
X135709819Y-79319999D01*
X135709819Y-80081904D02*
X135043152Y-80081904D01*
X135233628Y-80081904D02*
X135138390Y-80129523D01*
X135138390Y-80129523D02*
X135090771Y-80177142D01*
X135090771Y-80177142D02*
X135043152Y-80272380D01*
X135043152Y-80272380D02*
X135043152Y-80367618D01*
X135662200Y-81415238D02*
X135709819Y-81558095D01*
X135709819Y-81558095D02*
X135709819Y-81796190D01*
X135709819Y-81796190D02*
X135662200Y-81891428D01*
X135662200Y-81891428D02*
X135614580Y-81939047D01*
X135614580Y-81939047D02*
X135519342Y-81986666D01*
X135519342Y-81986666D02*
X135424104Y-81986666D01*
X135424104Y-81986666D02*
X135328866Y-81939047D01*
X135328866Y-81939047D02*
X135281247Y-81891428D01*
X135281247Y-81891428D02*
X135233628Y-81796190D01*
X135233628Y-81796190D02*
X135186009Y-81605714D01*
X135186009Y-81605714D02*
X135138390Y-81510476D01*
X135138390Y-81510476D02*
X135090771Y-81462857D01*
X135090771Y-81462857D02*
X134995533Y-81415238D01*
X134995533Y-81415238D02*
X134900295Y-81415238D01*
X134900295Y-81415238D02*
X134805057Y-81462857D01*
X134805057Y-81462857D02*
X134757438Y-81510476D01*
X134757438Y-81510476D02*
X134709819Y-81605714D01*
X134709819Y-81605714D02*
X134709819Y-81843809D01*
X134709819Y-81843809D02*
X134757438Y-81986666D01*
X135709819Y-82415238D02*
X135043152Y-82415238D01*
X134709819Y-82415238D02*
X134757438Y-82367619D01*
X134757438Y-82367619D02*
X134805057Y-82415238D01*
X134805057Y-82415238D02*
X134757438Y-82462857D01*
X134757438Y-82462857D02*
X134709819Y-82415238D01*
X134709819Y-82415238D02*
X134805057Y-82415238D01*
X135043152Y-82891428D02*
X135709819Y-82891428D01*
X135138390Y-82891428D02*
X135090771Y-82939047D01*
X135090771Y-82939047D02*
X135043152Y-83034285D01*
X135043152Y-83034285D02*
X135043152Y-83177142D01*
X135043152Y-83177142D02*
X135090771Y-83272380D01*
X135090771Y-83272380D02*
X135186009Y-83319999D01*
X135186009Y-83319999D02*
X135709819Y-83319999D01*
X135662200Y-84224761D02*
X135709819Y-84129523D01*
X135709819Y-84129523D02*
X135709819Y-83939047D01*
X135709819Y-83939047D02*
X135662200Y-83843809D01*
X135662200Y-83843809D02*
X135614580Y-83796190D01*
X135614580Y-83796190D02*
X135519342Y-83748571D01*
X135519342Y-83748571D02*
X135233628Y-83748571D01*
X135233628Y-83748571D02*
X135138390Y-83796190D01*
X135138390Y-83796190D02*
X135090771Y-83843809D01*
X135090771Y-83843809D02*
X135043152Y-83939047D01*
X135043152Y-83939047D02*
X135043152Y-84129523D01*
X135043152Y-84129523D02*
X135090771Y-84224761D01*
X135709819Y-84796190D02*
X135662200Y-84700952D01*
X135662200Y-84700952D02*
X135566961Y-84653333D01*
X135566961Y-84653333D02*
X134709819Y-84653333D01*
X135709819Y-85605714D02*
X135186009Y-85605714D01*
X135186009Y-85605714D02*
X135090771Y-85558095D01*
X135090771Y-85558095D02*
X135043152Y-85462857D01*
X135043152Y-85462857D02*
X135043152Y-85272381D01*
X135043152Y-85272381D02*
X135090771Y-85177143D01*
X135662200Y-85605714D02*
X135709819Y-85510476D01*
X135709819Y-85510476D02*
X135709819Y-85272381D01*
X135709819Y-85272381D02*
X135662200Y-85177143D01*
X135662200Y-85177143D02*
X135566961Y-85129524D01*
X135566961Y-85129524D02*
X135471723Y-85129524D01*
X135471723Y-85129524D02*
X135376485Y-85177143D01*
X135376485Y-85177143D02*
X135328866Y-85272381D01*
X135328866Y-85272381D02*
X135328866Y-85510476D01*
X135328866Y-85510476D02*
X135281247Y-85605714D01*
X135709819Y-86081905D02*
X135043152Y-86081905D01*
X134709819Y-86081905D02*
X134757438Y-86034286D01*
X134757438Y-86034286D02*
X134805057Y-86081905D01*
X134805057Y-86081905D02*
X134757438Y-86129524D01*
X134757438Y-86129524D02*
X134709819Y-86081905D01*
X134709819Y-86081905D02*
X134805057Y-86081905D01*
X135709819Y-86558095D02*
X135043152Y-86558095D01*
X135233628Y-86558095D02*
X135138390Y-86605714D01*
X135138390Y-86605714D02*
X135090771Y-86653333D01*
X135090771Y-86653333D02*
X135043152Y-86748571D01*
X135043152Y-86748571D02*
X135043152Y-86843809D01*
X135805057Y-88605714D02*
X135757438Y-88510476D01*
X135757438Y-88510476D02*
X135662200Y-88415238D01*
X135662200Y-88415238D02*
X135519342Y-88272381D01*
X135519342Y-88272381D02*
X135471723Y-88177143D01*
X135471723Y-88177143D02*
X135471723Y-88081905D01*
X135709819Y-88129524D02*
X135662200Y-88034286D01*
X135662200Y-88034286D02*
X135566961Y-87939048D01*
X135566961Y-87939048D02*
X135376485Y-87891429D01*
X135376485Y-87891429D02*
X135043152Y-87891429D01*
X135043152Y-87891429D02*
X134852676Y-87939048D01*
X134852676Y-87939048D02*
X134757438Y-88034286D01*
X134757438Y-88034286D02*
X134709819Y-88129524D01*
X134709819Y-88129524D02*
X134709819Y-88320000D01*
X134709819Y-88320000D02*
X134757438Y-88415238D01*
X134757438Y-88415238D02*
X134852676Y-88510476D01*
X134852676Y-88510476D02*
X135043152Y-88558095D01*
X135043152Y-88558095D02*
X135376485Y-88558095D01*
X135376485Y-88558095D02*
X135566961Y-88510476D01*
X135566961Y-88510476D02*
X135662200Y-88415238D01*
X135662200Y-88415238D02*
X135709819Y-88320000D01*
X135709819Y-88320000D02*
X135709819Y-88129524D01*
X135709819Y-89462857D02*
X135709819Y-88986667D01*
X135709819Y-88986667D02*
X134709819Y-88986667D01*
X137700771Y-76272379D02*
X137653152Y-76224760D01*
X137653152Y-76224760D02*
X137510295Y-76129522D01*
X137510295Y-76129522D02*
X137415057Y-76081903D01*
X137415057Y-76081903D02*
X137272200Y-76034284D01*
X137272200Y-76034284D02*
X137034104Y-75986665D01*
X137034104Y-75986665D02*
X136843628Y-75986665D01*
X136843628Y-75986665D02*
X136605533Y-76034284D01*
X136605533Y-76034284D02*
X136462676Y-76081903D01*
X136462676Y-76081903D02*
X136367438Y-76129522D01*
X136367438Y-76129522D02*
X136224580Y-76224760D01*
X136224580Y-76224760D02*
X136176961Y-76272379D01*
X137224580Y-77224760D02*
X137272200Y-77177141D01*
X137272200Y-77177141D02*
X137319819Y-77034284D01*
X137319819Y-77034284D02*
X137319819Y-76939046D01*
X137319819Y-76939046D02*
X137272200Y-76796189D01*
X137272200Y-76796189D02*
X137176961Y-76700951D01*
X137176961Y-76700951D02*
X137081723Y-76653332D01*
X137081723Y-76653332D02*
X136891247Y-76605713D01*
X136891247Y-76605713D02*
X136748390Y-76605713D01*
X136748390Y-76605713D02*
X136557914Y-76653332D01*
X136557914Y-76653332D02*
X136462676Y-76700951D01*
X136462676Y-76700951D02*
X136367438Y-76796189D01*
X136367438Y-76796189D02*
X136319819Y-76939046D01*
X136319819Y-76939046D02*
X136319819Y-77034284D01*
X136319819Y-77034284D02*
X136367438Y-77177141D01*
X136367438Y-77177141D02*
X136415057Y-77224760D01*
X137700771Y-77558094D02*
X137653152Y-77605713D01*
X137653152Y-77605713D02*
X137510295Y-77700951D01*
X137510295Y-77700951D02*
X137415057Y-77748570D01*
X137415057Y-77748570D02*
X137272200Y-77796189D01*
X137272200Y-77796189D02*
X137034104Y-77843808D01*
X137034104Y-77843808D02*
X136843628Y-77843808D01*
X136843628Y-77843808D02*
X136605533Y-77796189D01*
X136605533Y-77796189D02*
X136462676Y-77748570D01*
X136462676Y-77748570D02*
X136367438Y-77700951D01*
X136367438Y-77700951D02*
X136224580Y-77605713D01*
X136224580Y-77605713D02*
X136176961Y-77558094D01*
X136415057Y-79034285D02*
X136367438Y-79081904D01*
X136367438Y-79081904D02*
X136319819Y-79177142D01*
X136319819Y-79177142D02*
X136319819Y-79415237D01*
X136319819Y-79415237D02*
X136367438Y-79510475D01*
X136367438Y-79510475D02*
X136415057Y-79558094D01*
X136415057Y-79558094D02*
X136510295Y-79605713D01*
X136510295Y-79605713D02*
X136605533Y-79605713D01*
X136605533Y-79605713D02*
X136748390Y-79558094D01*
X136748390Y-79558094D02*
X137319819Y-78986666D01*
X137319819Y-78986666D02*
X137319819Y-79605713D01*
X136319819Y-80224761D02*
X136319819Y-80319999D01*
X136319819Y-80319999D02*
X136367438Y-80415237D01*
X136367438Y-80415237D02*
X136415057Y-80462856D01*
X136415057Y-80462856D02*
X136510295Y-80510475D01*
X136510295Y-80510475D02*
X136700771Y-80558094D01*
X136700771Y-80558094D02*
X136938866Y-80558094D01*
X136938866Y-80558094D02*
X137129342Y-80510475D01*
X137129342Y-80510475D02*
X137224580Y-80462856D01*
X137224580Y-80462856D02*
X137272200Y-80415237D01*
X137272200Y-80415237D02*
X137319819Y-80319999D01*
X137319819Y-80319999D02*
X137319819Y-80224761D01*
X137319819Y-80224761D02*
X137272200Y-80129523D01*
X137272200Y-80129523D02*
X137224580Y-80081904D01*
X137224580Y-80081904D02*
X137129342Y-80034285D01*
X137129342Y-80034285D02*
X136938866Y-79986666D01*
X136938866Y-79986666D02*
X136700771Y-79986666D01*
X136700771Y-79986666D02*
X136510295Y-80034285D01*
X136510295Y-80034285D02*
X136415057Y-80081904D01*
X136415057Y-80081904D02*
X136367438Y-80129523D01*
X136367438Y-80129523D02*
X136319819Y-80224761D01*
X136415057Y-80939047D02*
X136367438Y-80986666D01*
X136367438Y-80986666D02*
X136319819Y-81081904D01*
X136319819Y-81081904D02*
X136319819Y-81319999D01*
X136319819Y-81319999D02*
X136367438Y-81415237D01*
X136367438Y-81415237D02*
X136415057Y-81462856D01*
X136415057Y-81462856D02*
X136510295Y-81510475D01*
X136510295Y-81510475D02*
X136605533Y-81510475D01*
X136605533Y-81510475D02*
X136748390Y-81462856D01*
X136748390Y-81462856D02*
X137319819Y-80891428D01*
X137319819Y-80891428D02*
X137319819Y-81510475D01*
X136415057Y-81891428D02*
X136367438Y-81939047D01*
X136367438Y-81939047D02*
X136319819Y-82034285D01*
X136319819Y-82034285D02*
X136319819Y-82272380D01*
X136319819Y-82272380D02*
X136367438Y-82367618D01*
X136367438Y-82367618D02*
X136415057Y-82415237D01*
X136415057Y-82415237D02*
X136510295Y-82462856D01*
X136510295Y-82462856D02*
X136605533Y-82462856D01*
X136605533Y-82462856D02*
X136748390Y-82415237D01*
X136748390Y-82415237D02*
X137319819Y-81843809D01*
X137319819Y-81843809D02*
X137319819Y-82462856D01*
X137034104Y-83605714D02*
X137034104Y-84081904D01*
X137319819Y-83510476D02*
X136319819Y-83843809D01*
X136319819Y-83843809D02*
X137319819Y-84177142D01*
X137319819Y-84653333D02*
X137272200Y-84558095D01*
X137272200Y-84558095D02*
X137176961Y-84510476D01*
X137176961Y-84510476D02*
X136319819Y-84510476D01*
X136653152Y-84939048D02*
X137319819Y-85177143D01*
X137319819Y-85177143D02*
X136653152Y-85415238D01*
X137319819Y-86224762D02*
X136796009Y-86224762D01*
X136796009Y-86224762D02*
X136700771Y-86177143D01*
X136700771Y-86177143D02*
X136653152Y-86081905D01*
X136653152Y-86081905D02*
X136653152Y-85891429D01*
X136653152Y-85891429D02*
X136700771Y-85796191D01*
X137272200Y-86224762D02*
X137319819Y-86129524D01*
X137319819Y-86129524D02*
X137319819Y-85891429D01*
X137319819Y-85891429D02*
X137272200Y-85796191D01*
X137272200Y-85796191D02*
X137176961Y-85748572D01*
X137176961Y-85748572D02*
X137081723Y-85748572D01*
X137081723Y-85748572D02*
X136986485Y-85796191D01*
X136986485Y-85796191D02*
X136938866Y-85891429D01*
X136938866Y-85891429D02*
X136938866Y-86129524D01*
X136938866Y-86129524D02*
X136891247Y-86224762D01*
X137319819Y-86700953D02*
X136653152Y-86700953D01*
X136843628Y-86700953D02*
X136748390Y-86748572D01*
X136748390Y-86748572D02*
X136700771Y-86796191D01*
X136700771Y-86796191D02*
X136653152Y-86891429D01*
X136653152Y-86891429D02*
X136653152Y-86986667D01*
X137319819Y-87462858D02*
X137272200Y-87367620D01*
X137272200Y-87367620D02*
X137224580Y-87320001D01*
X137224580Y-87320001D02*
X137129342Y-87272382D01*
X137129342Y-87272382D02*
X136843628Y-87272382D01*
X136843628Y-87272382D02*
X136748390Y-87320001D01*
X136748390Y-87320001D02*
X136700771Y-87367620D01*
X136700771Y-87367620D02*
X136653152Y-87462858D01*
X136653152Y-87462858D02*
X136653152Y-87605715D01*
X136653152Y-87605715D02*
X136700771Y-87700953D01*
X136700771Y-87700953D02*
X136748390Y-87748572D01*
X136748390Y-87748572D02*
X136843628Y-87796191D01*
X136843628Y-87796191D02*
X137129342Y-87796191D01*
X137129342Y-87796191D02*
X137224580Y-87748572D01*
X137224580Y-87748572D02*
X137272200Y-87700953D01*
X137272200Y-87700953D02*
X137319819Y-87605715D01*
X137319819Y-87605715D02*
X137319819Y-87462858D01*
X137034104Y-88939049D02*
X137034104Y-89415239D01*
X137319819Y-88843811D02*
X136319819Y-89177144D01*
X136319819Y-89177144D02*
X137319819Y-89510477D01*
X137319819Y-89986668D02*
X137272200Y-89891430D01*
X137272200Y-89891430D02*
X137176961Y-89843811D01*
X137176961Y-89843811D02*
X136319819Y-89843811D01*
X137272200Y-90748573D02*
X137319819Y-90653335D01*
X137319819Y-90653335D02*
X137319819Y-90462859D01*
X137319819Y-90462859D02*
X137272200Y-90367621D01*
X137272200Y-90367621D02*
X137176961Y-90320002D01*
X137176961Y-90320002D02*
X136796009Y-90320002D01*
X136796009Y-90320002D02*
X136700771Y-90367621D01*
X136700771Y-90367621D02*
X136653152Y-90462859D01*
X136653152Y-90462859D02*
X136653152Y-90653335D01*
X136653152Y-90653335D02*
X136700771Y-90748573D01*
X136700771Y-90748573D02*
X136796009Y-90796192D01*
X136796009Y-90796192D02*
X136891247Y-90796192D01*
X136891247Y-90796192D02*
X136986485Y-90320002D01*
X137319819Y-91653335D02*
X136796009Y-91653335D01*
X136796009Y-91653335D02*
X136700771Y-91605716D01*
X136700771Y-91605716D02*
X136653152Y-91510478D01*
X136653152Y-91510478D02*
X136653152Y-91320002D01*
X136653152Y-91320002D02*
X136700771Y-91224764D01*
X137272200Y-91653335D02*
X137319819Y-91558097D01*
X137319819Y-91558097D02*
X137319819Y-91320002D01*
X137319819Y-91320002D02*
X137272200Y-91224764D01*
X137272200Y-91224764D02*
X137176961Y-91177145D01*
X137176961Y-91177145D02*
X137081723Y-91177145D01*
X137081723Y-91177145D02*
X136986485Y-91224764D01*
X136986485Y-91224764D02*
X136938866Y-91320002D01*
X136938866Y-91320002D02*
X136938866Y-91558097D01*
X136938866Y-91558097D02*
X136891247Y-91653335D01*
X137483333Y-63374819D02*
X137483333Y-64089104D01*
X137483333Y-64089104D02*
X137530952Y-64231961D01*
X137530952Y-64231961D02*
X137626190Y-64327200D01*
X137626190Y-64327200D02*
X137769047Y-64374819D01*
X137769047Y-64374819D02*
X137864285Y-64374819D01*
X136578571Y-63708152D02*
X136578571Y-64374819D01*
X136816666Y-63327200D02*
X137054761Y-64041485D01*
X137054761Y-64041485D02*
X136435714Y-64041485D01*
D11*
%TO.C,J4*%
X139750000Y-73100000D02*
X134550000Y-73100000D01*
X139750000Y-65360000D02*
X139750000Y-73100000D01*
X139750000Y-65360000D02*
X137150000Y-65360000D01*
X137150000Y-67960000D02*
X134550000Y-67960000D01*
X137150000Y-65360000D02*
X137150000Y-67960000D01*
X135880000Y-65360000D02*
X134550000Y-65360000D01*
X134550000Y-67960000D02*
X134550000Y-73100000D01*
X134550000Y-65360000D02*
X134550000Y-66690000D01*
%TD*%
M02*
