M48
; DRILL file {KiCad 7.0.11+1} date lun 13 may 2024 22:14:01
; FORMAT={-:-/ absolute / inch / decimal}
; #@! TF.CreationDate,2024-05-13T22:14:01+02:00
; #@! TF.GenerationSoftware,Kicad,Pcbnew,7.0.11+1
; #@! TF.FileFunction,Plated,1,2,PTH
FMAT,2
INCH
; #@! TA.AperFunction,Plated,PTH,ViaDrill
T1C0.0157
; #@! TA.AperFunction,Plated,PTH,ComponentDrill
T2C0.0315
; #@! TA.AperFunction,Plated,PTH,ComponentDrill
T3C0.0394
%
G90
G05
T1
X5.925Y-2.575
T2
X3.9Y-2.275
X3.9Y-2.375
X3.9Y-2.475
X3.9Y-2.575
X3.9Y-2.675
X3.9Y-2.775
X3.9Y-2.875
X3.9Y-2.975
X3.9Y-3.075
X3.9Y-3.175
X3.9Y-3.275
X3.9Y-3.375
X3.9Y-3.475
X3.9Y-3.575
X3.9Y-3.675
X3.9Y-3.775
X4.05Y-2.475
X4.05Y-2.575
X4.05Y-2.675
X4.05Y-2.775
X4.05Y-2.875
X4.05Y-2.975
X4.05Y-3.075
X4.05Y-3.175
X4.05Y-3.275
X4.05Y-3.375
X4.05Y-3.475
X4.05Y-3.575
X4.05Y-3.675
X4.05Y-3.775
X4.5Y-2.275
X4.5Y-2.375
X4.5Y-2.475
X4.5Y-2.575
X4.5Y-2.675
X4.5Y-2.775
X4.5Y-2.875
X4.5Y-2.975
X4.5Y-3.075
X4.5Y-3.175
X4.5Y-3.275
X4.5Y-3.375
X4.5Y-3.475
X4.5Y-3.575
X4.5Y-3.675
X4.5Y-3.775
X4.65Y-2.475
X4.65Y-2.575
X4.65Y-2.675
X4.65Y-2.775
X4.65Y-2.875
X4.65Y-2.975
X4.65Y-3.075
X4.65Y-3.175
X4.65Y-3.275
X4.65Y-3.375
X4.65Y-3.475
X4.65Y-3.575
X4.65Y-3.675
X4.65Y-3.775
X4.9498Y-2.275
X4.9498Y-2.375
X4.9498Y-2.475
X4.9498Y-2.575
X4.9498Y-2.675
X4.9498Y-2.775
X4.9498Y-2.875
X4.9498Y-2.975
X4.9498Y-3.075
X4.9498Y-3.175
X4.9498Y-3.275
X4.9498Y-3.375
X4.9498Y-3.475
X4.9498Y-3.575
X4.9498Y-3.675
X4.9498Y-3.775
X5.0996Y-2.4754
X5.0996Y-2.5754
X5.0996Y-2.6754
X5.0996Y-2.7754
X5.0996Y-2.8754
X5.0996Y-2.9754
X5.0996Y-3.0754
X5.0996Y-3.1754
X5.0996Y-3.2754
X5.0996Y-3.3754
X5.0996Y-3.4754
X5.0996Y-3.5754
X5.0996Y-3.6754
X5.0996Y-3.7754
X5.5498Y-2.275
X5.5498Y-2.375
X5.5498Y-2.475
X5.5498Y-2.575
X5.5498Y-2.675
X5.5498Y-2.775
X5.5498Y-2.875
X5.5498Y-2.975
X5.5498Y-3.075
X5.5498Y-3.175
X5.5498Y-3.275
X5.5498Y-3.375
X5.5498Y-3.475
X5.5498Y-3.575
X5.5498Y-3.675
X5.5498Y-3.775
X5.6996Y-2.4754
X5.6996Y-2.5754
X5.6996Y-2.6754
X5.6996Y-2.7754
X5.6996Y-2.8754
X5.6996Y-2.9754
X5.6996Y-3.0754
X5.6996Y-3.1754
X5.6996Y-3.2754
X5.6996Y-3.3754
X5.6996Y-3.4754
X5.6996Y-3.5754
X5.6996Y-3.6754
X5.6996Y-3.7754
X5.85Y-2.5
X5.85Y-2.8
X5.8504Y-2.9748
X5.8504Y-3.0748
X5.8504Y-3.1748
X5.8504Y-3.2748
X5.8504Y-3.3748
X5.8504Y-3.4748
X5.8504Y-3.5748
X5.8516Y-3.725
X6.0Y-2.5
X6.0Y-2.8
X6.0484Y-3.725
X6.15Y-2.5
X6.15Y-2.8
X6.1504Y-2.9748
X6.1504Y-3.0748
X6.1504Y-3.1748
X6.1504Y-3.2748
X6.1504Y-3.3748
X6.1504Y-3.4748
X6.1504Y-3.5748
X6.3Y-2.5
X6.3Y-2.8
T3
X4.2998Y-2.6256
X4.2998Y-2.7256
X4.2998Y-2.8256
X4.3998Y-2.6256
X4.3998Y-2.7256
X4.3998Y-2.8256
X5.3496Y-2.6256
X5.3496Y-2.7256
X5.3496Y-2.8256
X5.4496Y-2.6256
X5.4496Y-2.7256
X5.4496Y-2.8256
X5.8504Y-2.275
X5.8504Y-2.375
X5.9504Y-2.275
X5.9504Y-2.375
X6.0504Y-2.275
X6.0504Y-2.375
X6.1504Y-2.275
X6.1504Y-2.375
X6.25Y-2.375
X6.2778Y-3.075
X6.2778Y-3.175
X6.2778Y-3.275
X6.2778Y-3.375
X6.2778Y-3.475
X6.2778Y-3.575
M30
