%TF.GenerationSoftware,KiCad,Pcbnew,6.0.0-d3dd2cf0fa~116~ubuntu21.10.1*%
%TF.CreationDate,2022-01-11T21:52:59+01:00*%
%TF.ProjectId,QL_ROM_internal_V2,514c5f52-4f4d-45f6-996e-7465726e616c,rev?*%
%TF.SameCoordinates,Original*%
%TF.FileFunction,Legend,Bot*%
%TF.FilePolarity,Positive*%
%FSLAX46Y46*%
G04 Gerber Fmt 4.6, Leading zero omitted, Abs format (unit mm)*
G04 Created by KiCad (PCBNEW 6.0.0-d3dd2cf0fa~116~ubuntu21.10.1) date 2022-01-11 21:52:59*
%MOMM*%
%LPD*%
G01*
G04 APERTURE LIST*
%ADD10C,0.150000*%
G04 APERTURE END LIST*
D10*
X134097380Y-75748571D02*
X133097380Y-75748571D01*
X133430714Y-76224761D02*
X134097380Y-76224761D01*
X133525952Y-76224761D02*
X133478333Y-76272380D01*
X133430714Y-76367619D01*
X133430714Y-76510476D01*
X133478333Y-76605714D01*
X133573571Y-76653333D01*
X134097380Y-76653333D01*
X133430714Y-76986666D02*
X133430714Y-77367619D01*
X133097380Y-77129523D02*
X133954523Y-77129523D01*
X134049761Y-77177142D01*
X134097380Y-77272380D01*
X134097380Y-77367619D01*
X134049761Y-78081904D02*
X134097380Y-77986666D01*
X134097380Y-77796190D01*
X134049761Y-77700952D01*
X133954523Y-77653333D01*
X133573571Y-77653333D01*
X133478333Y-77700952D01*
X133430714Y-77796190D01*
X133430714Y-77986666D01*
X133478333Y-78081904D01*
X133573571Y-78129523D01*
X133668809Y-78129523D01*
X133764047Y-77653333D01*
X134097380Y-78558095D02*
X133430714Y-78558095D01*
X133621190Y-78558095D02*
X133525952Y-78605714D01*
X133478333Y-78653333D01*
X133430714Y-78748571D01*
X133430714Y-78843809D01*
X133430714Y-79177142D02*
X134097380Y-79177142D01*
X133525952Y-79177142D02*
X133478333Y-79224761D01*
X133430714Y-79320000D01*
X133430714Y-79462857D01*
X133478333Y-79558095D01*
X133573571Y-79605714D01*
X134097380Y-79605714D01*
X134097380Y-80510476D02*
X133573571Y-80510476D01*
X133478333Y-80462857D01*
X133430714Y-80367619D01*
X133430714Y-80177142D01*
X133478333Y-80081904D01*
X134049761Y-80510476D02*
X134097380Y-80415238D01*
X134097380Y-80177142D01*
X134049761Y-80081904D01*
X133954523Y-80034285D01*
X133859285Y-80034285D01*
X133764047Y-80081904D01*
X133716428Y-80177142D01*
X133716428Y-80415238D01*
X133668809Y-80510476D01*
X134097380Y-81129523D02*
X134049761Y-81034285D01*
X133954523Y-80986666D01*
X133097380Y-80986666D01*
X134097380Y-82843809D02*
X133621190Y-82510476D01*
X134097380Y-82272380D02*
X133097380Y-82272380D01*
X133097380Y-82653333D01*
X133145000Y-82748571D01*
X133192619Y-82796190D01*
X133287857Y-82843809D01*
X133430714Y-82843809D01*
X133525952Y-82796190D01*
X133573571Y-82748571D01*
X133621190Y-82653333D01*
X133621190Y-82272380D01*
X133097380Y-83462857D02*
X133097380Y-83653333D01*
X133145000Y-83748571D01*
X133240238Y-83843809D01*
X133430714Y-83891428D01*
X133764047Y-83891428D01*
X133954523Y-83843809D01*
X134049761Y-83748571D01*
X134097380Y-83653333D01*
X134097380Y-83462857D01*
X134049761Y-83367619D01*
X133954523Y-83272380D01*
X133764047Y-83224761D01*
X133430714Y-83224761D01*
X133240238Y-83272380D01*
X133145000Y-83367619D01*
X133097380Y-83462857D01*
X134097380Y-84320000D02*
X133097380Y-84320000D01*
X133811666Y-84653333D01*
X133097380Y-84986666D01*
X134097380Y-84986666D01*
X133097380Y-86224761D02*
X133906904Y-86224761D01*
X134002142Y-86272380D01*
X134049761Y-86320000D01*
X134097380Y-86415238D01*
X134097380Y-86605714D01*
X134049761Y-86700952D01*
X134002142Y-86748571D01*
X133906904Y-86796190D01*
X133097380Y-86796190D01*
X133430714Y-87272380D02*
X134430714Y-87272380D01*
X133478333Y-87272380D02*
X133430714Y-87367619D01*
X133430714Y-87558095D01*
X133478333Y-87653333D01*
X133525952Y-87700952D01*
X133621190Y-87748571D01*
X133906904Y-87748571D01*
X134002142Y-87700952D01*
X134049761Y-87653333D01*
X134097380Y-87558095D01*
X134097380Y-87367619D01*
X134049761Y-87272380D01*
X133430714Y-88605714D02*
X134240238Y-88605714D01*
X134335476Y-88558095D01*
X134383095Y-88510476D01*
X134430714Y-88415238D01*
X134430714Y-88272380D01*
X134383095Y-88177142D01*
X134049761Y-88605714D02*
X134097380Y-88510476D01*
X134097380Y-88320000D01*
X134049761Y-88224761D01*
X134002142Y-88177142D01*
X133906904Y-88129523D01*
X133621190Y-88129523D01*
X133525952Y-88177142D01*
X133478333Y-88224761D01*
X133430714Y-88320000D01*
X133430714Y-88510476D01*
X133478333Y-88605714D01*
X134097380Y-89081904D02*
X133430714Y-89081904D01*
X133621190Y-89081904D02*
X133525952Y-89129523D01*
X133478333Y-89177142D01*
X133430714Y-89272380D01*
X133430714Y-89367619D01*
X134097380Y-90129523D02*
X133573571Y-90129523D01*
X133478333Y-90081904D01*
X133430714Y-89986666D01*
X133430714Y-89796190D01*
X133478333Y-89700952D01*
X134049761Y-90129523D02*
X134097380Y-90034285D01*
X134097380Y-89796190D01*
X134049761Y-89700952D01*
X133954523Y-89653333D01*
X133859285Y-89653333D01*
X133764047Y-89700952D01*
X133716428Y-89796190D01*
X133716428Y-90034285D01*
X133668809Y-90129523D01*
X134097380Y-91034285D02*
X133097380Y-91034285D01*
X134049761Y-91034285D02*
X134097380Y-90939047D01*
X134097380Y-90748571D01*
X134049761Y-90653333D01*
X134002142Y-90605714D01*
X133906904Y-90558095D01*
X133621190Y-90558095D01*
X133525952Y-90605714D01*
X133478333Y-90653333D01*
X133430714Y-90748571D01*
X133430714Y-90939047D01*
X133478333Y-91034285D01*
X134049761Y-91891428D02*
X134097380Y-91796190D01*
X134097380Y-91605714D01*
X134049761Y-91510476D01*
X133954523Y-91462857D01*
X133573571Y-91462857D01*
X133478333Y-91510476D01*
X133430714Y-91605714D01*
X133430714Y-91796190D01*
X133478333Y-91891428D01*
X133573571Y-91939047D01*
X133668809Y-91939047D01*
X133764047Y-91462857D01*
X135183571Y-78653333D02*
X135183571Y-78320000D01*
X135707380Y-78320000D02*
X134707380Y-78320000D01*
X134707380Y-78796190D01*
X135707380Y-79320000D02*
X135659761Y-79224761D01*
X135612142Y-79177142D01*
X135516904Y-79129523D01*
X135231190Y-79129523D01*
X135135952Y-79177142D01*
X135088333Y-79224761D01*
X135040714Y-79320000D01*
X135040714Y-79462857D01*
X135088333Y-79558095D01*
X135135952Y-79605714D01*
X135231190Y-79653333D01*
X135516904Y-79653333D01*
X135612142Y-79605714D01*
X135659761Y-79558095D01*
X135707380Y-79462857D01*
X135707380Y-79320000D01*
X135707380Y-80081904D02*
X135040714Y-80081904D01*
X135231190Y-80081904D02*
X135135952Y-80129523D01*
X135088333Y-80177142D01*
X135040714Y-80272380D01*
X135040714Y-80367619D01*
X135659761Y-81415238D02*
X135707380Y-81558095D01*
X135707380Y-81796190D01*
X135659761Y-81891428D01*
X135612142Y-81939047D01*
X135516904Y-81986666D01*
X135421666Y-81986666D01*
X135326428Y-81939047D01*
X135278809Y-81891428D01*
X135231190Y-81796190D01*
X135183571Y-81605714D01*
X135135952Y-81510476D01*
X135088333Y-81462857D01*
X134993095Y-81415238D01*
X134897857Y-81415238D01*
X134802619Y-81462857D01*
X134755000Y-81510476D01*
X134707380Y-81605714D01*
X134707380Y-81843809D01*
X134755000Y-81986666D01*
X135707380Y-82415238D02*
X135040714Y-82415238D01*
X134707380Y-82415238D02*
X134755000Y-82367619D01*
X134802619Y-82415238D01*
X134755000Y-82462857D01*
X134707380Y-82415238D01*
X134802619Y-82415238D01*
X135040714Y-82891428D02*
X135707380Y-82891428D01*
X135135952Y-82891428D02*
X135088333Y-82939047D01*
X135040714Y-83034285D01*
X135040714Y-83177142D01*
X135088333Y-83272380D01*
X135183571Y-83320000D01*
X135707380Y-83320000D01*
X135659761Y-84224761D02*
X135707380Y-84129523D01*
X135707380Y-83939047D01*
X135659761Y-83843809D01*
X135612142Y-83796190D01*
X135516904Y-83748571D01*
X135231190Y-83748571D01*
X135135952Y-83796190D01*
X135088333Y-83843809D01*
X135040714Y-83939047D01*
X135040714Y-84129523D01*
X135088333Y-84224761D01*
X135707380Y-84796190D02*
X135659761Y-84700952D01*
X135564523Y-84653333D01*
X134707380Y-84653333D01*
X135707380Y-85605714D02*
X135183571Y-85605714D01*
X135088333Y-85558095D01*
X135040714Y-85462857D01*
X135040714Y-85272380D01*
X135088333Y-85177142D01*
X135659761Y-85605714D02*
X135707380Y-85510476D01*
X135707380Y-85272380D01*
X135659761Y-85177142D01*
X135564523Y-85129523D01*
X135469285Y-85129523D01*
X135374047Y-85177142D01*
X135326428Y-85272380D01*
X135326428Y-85510476D01*
X135278809Y-85605714D01*
X135707380Y-86081904D02*
X135040714Y-86081904D01*
X134707380Y-86081904D02*
X134755000Y-86034285D01*
X134802619Y-86081904D01*
X134755000Y-86129523D01*
X134707380Y-86081904D01*
X134802619Y-86081904D01*
X135707380Y-86558095D02*
X135040714Y-86558095D01*
X135231190Y-86558095D02*
X135135952Y-86605714D01*
X135088333Y-86653333D01*
X135040714Y-86748571D01*
X135040714Y-86843809D01*
X135802619Y-88605714D02*
X135755000Y-88510476D01*
X135659761Y-88415238D01*
X135516904Y-88272380D01*
X135469285Y-88177142D01*
X135469285Y-88081904D01*
X135707380Y-88129523D02*
X135659761Y-88034285D01*
X135564523Y-87939047D01*
X135374047Y-87891428D01*
X135040714Y-87891428D01*
X134850238Y-87939047D01*
X134755000Y-88034285D01*
X134707380Y-88129523D01*
X134707380Y-88320000D01*
X134755000Y-88415238D01*
X134850238Y-88510476D01*
X135040714Y-88558095D01*
X135374047Y-88558095D01*
X135564523Y-88510476D01*
X135659761Y-88415238D01*
X135707380Y-88320000D01*
X135707380Y-88129523D01*
X135707380Y-89462857D02*
X135707380Y-88986666D01*
X134707380Y-88986666D01*
X137698333Y-76272380D02*
X137650714Y-76224761D01*
X137507857Y-76129523D01*
X137412619Y-76081904D01*
X137269761Y-76034285D01*
X137031666Y-75986666D01*
X136841190Y-75986666D01*
X136603095Y-76034285D01*
X136460238Y-76081904D01*
X136365000Y-76129523D01*
X136222142Y-76224761D01*
X136174523Y-76272380D01*
X137222142Y-77224761D02*
X137269761Y-77177142D01*
X137317380Y-77034285D01*
X137317380Y-76939047D01*
X137269761Y-76796190D01*
X137174523Y-76700952D01*
X137079285Y-76653333D01*
X136888809Y-76605714D01*
X136745952Y-76605714D01*
X136555476Y-76653333D01*
X136460238Y-76700952D01*
X136365000Y-76796190D01*
X136317380Y-76939047D01*
X136317380Y-77034285D01*
X136365000Y-77177142D01*
X136412619Y-77224761D01*
X137698333Y-77558095D02*
X137650714Y-77605714D01*
X137507857Y-77700952D01*
X137412619Y-77748571D01*
X137269761Y-77796190D01*
X137031666Y-77843809D01*
X136841190Y-77843809D01*
X136603095Y-77796190D01*
X136460238Y-77748571D01*
X136365000Y-77700952D01*
X136222142Y-77605714D01*
X136174523Y-77558095D01*
X136412619Y-79034285D02*
X136365000Y-79081904D01*
X136317380Y-79177142D01*
X136317380Y-79415238D01*
X136365000Y-79510476D01*
X136412619Y-79558095D01*
X136507857Y-79605714D01*
X136603095Y-79605714D01*
X136745952Y-79558095D01*
X137317380Y-78986666D01*
X137317380Y-79605714D01*
X136317380Y-80224761D02*
X136317380Y-80320000D01*
X136365000Y-80415238D01*
X136412619Y-80462857D01*
X136507857Y-80510476D01*
X136698333Y-80558095D01*
X136936428Y-80558095D01*
X137126904Y-80510476D01*
X137222142Y-80462857D01*
X137269761Y-80415238D01*
X137317380Y-80320000D01*
X137317380Y-80224761D01*
X137269761Y-80129523D01*
X137222142Y-80081904D01*
X137126904Y-80034285D01*
X136936428Y-79986666D01*
X136698333Y-79986666D01*
X136507857Y-80034285D01*
X136412619Y-80081904D01*
X136365000Y-80129523D01*
X136317380Y-80224761D01*
X136412619Y-80939047D02*
X136365000Y-80986666D01*
X136317380Y-81081904D01*
X136317380Y-81320000D01*
X136365000Y-81415238D01*
X136412619Y-81462857D01*
X136507857Y-81510476D01*
X136603095Y-81510476D01*
X136745952Y-81462857D01*
X137317380Y-80891428D01*
X137317380Y-81510476D01*
X136412619Y-81891428D02*
X136365000Y-81939047D01*
X136317380Y-82034285D01*
X136317380Y-82272380D01*
X136365000Y-82367619D01*
X136412619Y-82415238D01*
X136507857Y-82462857D01*
X136603095Y-82462857D01*
X136745952Y-82415238D01*
X137317380Y-81843809D01*
X137317380Y-82462857D01*
X137031666Y-83605714D02*
X137031666Y-84081904D01*
X137317380Y-83510476D02*
X136317380Y-83843809D01*
X137317380Y-84177142D01*
X137317380Y-84653333D02*
X137269761Y-84558095D01*
X137174523Y-84510476D01*
X136317380Y-84510476D01*
X136650714Y-84939047D02*
X137317380Y-85177142D01*
X136650714Y-85415238D01*
X137317380Y-86224761D02*
X136793571Y-86224761D01*
X136698333Y-86177142D01*
X136650714Y-86081904D01*
X136650714Y-85891428D01*
X136698333Y-85796190D01*
X137269761Y-86224761D02*
X137317380Y-86129523D01*
X137317380Y-85891428D01*
X137269761Y-85796190D01*
X137174523Y-85748571D01*
X137079285Y-85748571D01*
X136984047Y-85796190D01*
X136936428Y-85891428D01*
X136936428Y-86129523D01*
X136888809Y-86224761D01*
X137317380Y-86700952D02*
X136650714Y-86700952D01*
X136841190Y-86700952D02*
X136745952Y-86748571D01*
X136698333Y-86796190D01*
X136650714Y-86891428D01*
X136650714Y-86986666D01*
X137317380Y-87462857D02*
X137269761Y-87367619D01*
X137222142Y-87319999D01*
X137126904Y-87272380D01*
X136841190Y-87272380D01*
X136745952Y-87319999D01*
X136698333Y-87367619D01*
X136650714Y-87462857D01*
X136650714Y-87605714D01*
X136698333Y-87700952D01*
X136745952Y-87748571D01*
X136841190Y-87796190D01*
X137126904Y-87796190D01*
X137222142Y-87748571D01*
X137269761Y-87700952D01*
X137317380Y-87605714D01*
X137317380Y-87462857D01*
X137031666Y-88939047D02*
X137031666Y-89415238D01*
X137317380Y-88843809D02*
X136317380Y-89177142D01*
X137317380Y-89510476D01*
X137317380Y-89986666D02*
X137269761Y-89891428D01*
X137174523Y-89843809D01*
X136317380Y-89843809D01*
X137269761Y-90748571D02*
X137317380Y-90653333D01*
X137317380Y-90462857D01*
X137269761Y-90367619D01*
X137174523Y-90319999D01*
X136793571Y-90319999D01*
X136698333Y-90367619D01*
X136650714Y-90462857D01*
X136650714Y-90653333D01*
X136698333Y-90748571D01*
X136793571Y-90796190D01*
X136888809Y-90796190D01*
X136984047Y-90319999D01*
X137317380Y-91653333D02*
X136793571Y-91653333D01*
X136698333Y-91605714D01*
X136650714Y-91510476D01*
X136650714Y-91319999D01*
X136698333Y-91224761D01*
X137269761Y-91653333D02*
X137317380Y-91558095D01*
X137317380Y-91319999D01*
X137269761Y-91224761D01*
X137174523Y-91177142D01*
X137079285Y-91177142D01*
X136984047Y-91224761D01*
X136936428Y-91319999D01*
X136936428Y-91558095D01*
X136888809Y-91653333D01*
M02*
