%TF.GenerationSoftware,KiCad,Pcbnew,6.0.0-d3dd2cf0fa~116~ubuntu21.10.1*%
%TF.CreationDate,2022-01-11T21:52:59+01:00*%
%TF.ProjectId,QL_ROM_internal_V2,514c5f52-4f4d-45f6-996e-7465726e616c,rev?*%
%TF.SameCoordinates,Original*%
%TF.FileFunction,Legend,Top*%
%TF.FilePolarity,Positive*%
%FSLAX46Y46*%
G04 Gerber Fmt 4.6, Leading zero omitted, Abs format (unit mm)*
G04 Created by KiCad (PCBNEW 6.0.0-d3dd2cf0fa~116~ubuntu21.10.1) date 2022-01-11 21:52:59*
%MOMM*%
%LPD*%
G01*
G04 APERTURE LIST*
%ADD10C,0.300000*%
%ADD11C,0.150000*%
%ADD12C,0.120000*%
G04 APERTURE END LIST*
D10*
X108535476Y-91498809D02*
X109428333Y-91498809D01*
X109606904Y-91558333D01*
X109725952Y-91677380D01*
X109785476Y-91855952D01*
X109785476Y-91975000D01*
X109785476Y-90308333D02*
X109785476Y-90903571D01*
X108535476Y-90903571D01*
X109666428Y-89177380D02*
X109725952Y-89236904D01*
X109785476Y-89415476D01*
X109785476Y-89534523D01*
X109725952Y-89713095D01*
X109606904Y-89832142D01*
X109487857Y-89891666D01*
X109249761Y-89951190D01*
X109071190Y-89951190D01*
X108833095Y-89891666D01*
X108714047Y-89832142D01*
X108595000Y-89713095D01*
X108535476Y-89534523D01*
X108535476Y-89415476D01*
X108595000Y-89236904D01*
X108654523Y-89177380D01*
X108535476Y-88284523D02*
X109428333Y-88284523D01*
X109606904Y-88344047D01*
X109725952Y-88463095D01*
X109785476Y-88641666D01*
X109785476Y-88760714D01*
X109785476Y-87094047D02*
X109785476Y-87689285D01*
X108535476Y-87689285D01*
X109666428Y-85963095D02*
X109725952Y-86022619D01*
X109785476Y-86201190D01*
X109785476Y-86320238D01*
X109725952Y-86498809D01*
X109606904Y-86617857D01*
X109487857Y-86677380D01*
X109249761Y-86736904D01*
X109071190Y-86736904D01*
X108833095Y-86677380D01*
X108714047Y-86617857D01*
X108595000Y-86498809D01*
X108535476Y-86320238D01*
X108535476Y-86201190D01*
X108595000Y-86022619D01*
X108654523Y-85963095D01*
X108535476Y-85070238D02*
X109428333Y-85070238D01*
X109606904Y-85129761D01*
X109725952Y-85248809D01*
X109785476Y-85427380D01*
X109785476Y-85546428D01*
X109785476Y-83879761D02*
X109785476Y-84475000D01*
X108535476Y-84475000D01*
X109666428Y-82748809D02*
X109725952Y-82808333D01*
X109785476Y-82986904D01*
X109785476Y-83105952D01*
X109725952Y-83284523D01*
X109606904Y-83403571D01*
X109487857Y-83463095D01*
X109249761Y-83522619D01*
X109071190Y-83522619D01*
X108833095Y-83463095D01*
X108714047Y-83403571D01*
X108595000Y-83284523D01*
X108535476Y-83105952D01*
X108535476Y-82986904D01*
X108595000Y-82808333D01*
X108654523Y-82748809D01*
X108535476Y-81855952D02*
X109428333Y-81855952D01*
X109606904Y-81915476D01*
X109725952Y-82034523D01*
X109785476Y-82213095D01*
X109785476Y-82332142D01*
X109785476Y-80665476D02*
X109785476Y-81260714D01*
X108535476Y-81260714D01*
X109666428Y-79534523D02*
X109725952Y-79594047D01*
X109785476Y-79772619D01*
X109785476Y-79891666D01*
X109725952Y-80070238D01*
X109606904Y-80189285D01*
X109487857Y-80248809D01*
X109249761Y-80308333D01*
X109071190Y-80308333D01*
X108833095Y-80248809D01*
X108714047Y-80189285D01*
X108595000Y-80070238D01*
X108535476Y-79891666D01*
X108535476Y-79772619D01*
X108595000Y-79594047D01*
X108654523Y-79534523D01*
D11*
%TO.C,R4*%
X160472380Y-67476666D02*
X159996190Y-67810000D01*
X160472380Y-68048095D02*
X159472380Y-68048095D01*
X159472380Y-67667142D01*
X159520000Y-67571904D01*
X159567619Y-67524285D01*
X159662857Y-67476666D01*
X159805714Y-67476666D01*
X159900952Y-67524285D01*
X159948571Y-67571904D01*
X159996190Y-67667142D01*
X159996190Y-68048095D01*
X159805714Y-66619523D02*
X160472380Y-66619523D01*
X159424761Y-66857619D02*
X160139047Y-67095714D01*
X160139047Y-66476666D01*
%TO.C,U5*%
X116078095Y-57237380D02*
X116078095Y-58046904D01*
X116125714Y-58142142D01*
X116173333Y-58189761D01*
X116268571Y-58237380D01*
X116459047Y-58237380D01*
X116554285Y-58189761D01*
X116601904Y-58142142D01*
X116649523Y-58046904D01*
X116649523Y-57237380D01*
X117601904Y-57237380D02*
X117125714Y-57237380D01*
X117078095Y-57713571D01*
X117125714Y-57665952D01*
X117220952Y-57618333D01*
X117459047Y-57618333D01*
X117554285Y-57665952D01*
X117601904Y-57713571D01*
X117649523Y-57808809D01*
X117649523Y-58046904D01*
X117601904Y-58142142D01*
X117554285Y-58189761D01*
X117459047Y-58237380D01*
X117220952Y-58237380D01*
X117125714Y-58189761D01*
X117078095Y-58142142D01*
%TO.C,R1*%
X149042380Y-67476666D02*
X148566190Y-67810000D01*
X149042380Y-68048095D02*
X148042380Y-68048095D01*
X148042380Y-67667142D01*
X148090000Y-67571904D01*
X148137619Y-67524285D01*
X148232857Y-67476666D01*
X148375714Y-67476666D01*
X148470952Y-67524285D01*
X148518571Y-67571904D01*
X148566190Y-67667142D01*
X148566190Y-68048095D01*
X149042380Y-66524285D02*
X149042380Y-67095714D01*
X149042380Y-66810000D02*
X148042380Y-66810000D01*
X148185238Y-66905238D01*
X148280476Y-67000476D01*
X148328095Y-67095714D01*
%TO.C,U1*%
X144018095Y-59997380D02*
X144018095Y-60806904D01*
X144065714Y-60902142D01*
X144113333Y-60949761D01*
X144208571Y-60997380D01*
X144399047Y-60997380D01*
X144494285Y-60949761D01*
X144541904Y-60902142D01*
X144589523Y-60806904D01*
X144589523Y-59997380D01*
X145589523Y-60997380D02*
X145018095Y-60997380D01*
X145303809Y-60997380D02*
X145303809Y-59997380D01*
X145208571Y-60140238D01*
X145113333Y-60235476D01*
X145018095Y-60283095D01*
%TO.C,U3*%
X151648095Y-72682380D02*
X151648095Y-73491904D01*
X151695714Y-73587142D01*
X151743333Y-73634761D01*
X151838571Y-73682380D01*
X152029047Y-73682380D01*
X152124285Y-73634761D01*
X152171904Y-73587142D01*
X152219523Y-73491904D01*
X152219523Y-72682380D01*
X152600476Y-72682380D02*
X153219523Y-72682380D01*
X152886190Y-73063333D01*
X153029047Y-73063333D01*
X153124285Y-73110952D01*
X153171904Y-73158571D01*
X153219523Y-73253809D01*
X153219523Y-73491904D01*
X153171904Y-73587142D01*
X153124285Y-73634761D01*
X153029047Y-73682380D01*
X152743333Y-73682380D01*
X152648095Y-73634761D01*
X152600476Y-73587142D01*
%TO.C,J2*%
X159051666Y-75287380D02*
X159051666Y-76001666D01*
X159004047Y-76144523D01*
X158908809Y-76239761D01*
X158765952Y-76287380D01*
X158670714Y-76287380D01*
X159480238Y-75382619D02*
X159527857Y-75335000D01*
X159623095Y-75287380D01*
X159861190Y-75287380D01*
X159956428Y-75335000D01*
X160004047Y-75382619D01*
X160051666Y-75477857D01*
X160051666Y-75573095D01*
X160004047Y-75715952D01*
X159432619Y-76287380D01*
X160051666Y-76287380D01*
%TO.C,J3*%
X110151666Y-63812380D02*
X110151666Y-64526666D01*
X110104047Y-64669523D01*
X110008809Y-64764761D01*
X109865952Y-64812380D01*
X109770714Y-64812380D01*
X110532619Y-63812380D02*
X111151666Y-63812380D01*
X110818333Y-64193333D01*
X110961190Y-64193333D01*
X111056428Y-64240952D01*
X111104047Y-64288571D01*
X111151666Y-64383809D01*
X111151666Y-64621904D01*
X111104047Y-64717142D01*
X111056428Y-64764761D01*
X110961190Y-64812380D01*
X110675476Y-64812380D01*
X110580238Y-64764761D01*
X110532619Y-64717142D01*
%TO.C,R3*%
X156662380Y-67476666D02*
X156186190Y-67810000D01*
X156662380Y-68048095D02*
X155662380Y-68048095D01*
X155662380Y-67667142D01*
X155710000Y-67571904D01*
X155757619Y-67524285D01*
X155852857Y-67476666D01*
X155995714Y-67476666D01*
X156090952Y-67524285D01*
X156138571Y-67571904D01*
X156186190Y-67667142D01*
X156186190Y-68048095D01*
X155662380Y-67143333D02*
X155662380Y-66524285D01*
X156043333Y-66857619D01*
X156043333Y-66714761D01*
X156090952Y-66619523D01*
X156138571Y-66571904D01*
X156233809Y-66524285D01*
X156471904Y-66524285D01*
X156567142Y-66571904D01*
X156614761Y-66619523D01*
X156662380Y-66714761D01*
X156662380Y-67000476D01*
X156614761Y-67095714D01*
X156567142Y-67143333D01*
%TO.C,J1*%
X158416666Y-57237380D02*
X158416666Y-57951666D01*
X158369047Y-58094523D01*
X158273809Y-58189761D01*
X158130952Y-58237380D01*
X158035714Y-58237380D01*
X159416666Y-58237380D02*
X158845238Y-58237380D01*
X159130952Y-58237380D02*
X159130952Y-57237380D01*
X159035714Y-57380238D01*
X158940476Y-57475476D01*
X158845238Y-57523095D01*
%TO.C,U2*%
X142748095Y-57237380D02*
X142748095Y-58046904D01*
X142795714Y-58142142D01*
X142843333Y-58189761D01*
X142938571Y-58237380D01*
X143129047Y-58237380D01*
X143224285Y-58189761D01*
X143271904Y-58142142D01*
X143319523Y-58046904D01*
X143319523Y-57237380D01*
X143748095Y-57332619D02*
X143795714Y-57285000D01*
X143890952Y-57237380D01*
X144129047Y-57237380D01*
X144224285Y-57285000D01*
X144271904Y-57332619D01*
X144319523Y-57427857D01*
X144319523Y-57523095D01*
X144271904Y-57665952D01*
X143700476Y-58237380D01*
X144319523Y-58237380D01*
%TO.C,R2*%
X152852380Y-67476666D02*
X152376190Y-67810000D01*
X152852380Y-68048095D02*
X151852380Y-68048095D01*
X151852380Y-67667142D01*
X151900000Y-67571904D01*
X151947619Y-67524285D01*
X152042857Y-67476666D01*
X152185714Y-67476666D01*
X152280952Y-67524285D01*
X152328571Y-67571904D01*
X152376190Y-67667142D01*
X152376190Y-68048095D01*
X151947619Y-67095714D02*
X151900000Y-67048095D01*
X151852380Y-66952857D01*
X151852380Y-66714761D01*
X151900000Y-66619523D01*
X151947619Y-66571904D01*
X152042857Y-66524285D01*
X152138095Y-66524285D01*
X152280952Y-66571904D01*
X152852380Y-67143333D01*
X152852380Y-66524285D01*
%TO.C,C1*%
X156043333Y-94972142D02*
X155995714Y-95019761D01*
X155852857Y-95067380D01*
X155757619Y-95067380D01*
X155614761Y-95019761D01*
X155519523Y-94924523D01*
X155471904Y-94829285D01*
X155424285Y-94638809D01*
X155424285Y-94495952D01*
X155471904Y-94305476D01*
X155519523Y-94210238D01*
X155614761Y-94115000D01*
X155757619Y-94067380D01*
X155852857Y-94067380D01*
X155995714Y-94115000D01*
X156043333Y-94162619D01*
X156995714Y-95067380D02*
X156424285Y-95067380D01*
X156710000Y-95067380D02*
X156710000Y-94067380D01*
X156614761Y-94210238D01*
X156519523Y-94305476D01*
X156424285Y-94353095D01*
%TO.C,U4*%
X119888095Y-62317380D02*
X119888095Y-63126904D01*
X119935714Y-63222142D01*
X119983333Y-63269761D01*
X120078571Y-63317380D01*
X120269047Y-63317380D01*
X120364285Y-63269761D01*
X120411904Y-63222142D01*
X120459523Y-63126904D01*
X120459523Y-62317380D01*
X121364285Y-62650714D02*
X121364285Y-63317380D01*
X121126190Y-62269761D02*
X120888095Y-62984047D01*
X121507142Y-62984047D01*
%TO.C,J4*%
X136816666Y-63812380D02*
X136816666Y-64526666D01*
X136769047Y-64669523D01*
X136673809Y-64764761D01*
X136530952Y-64812380D01*
X136435714Y-64812380D01*
X137721428Y-64145714D02*
X137721428Y-64812380D01*
X137483333Y-63764761D02*
X137245238Y-64479047D01*
X137864285Y-64479047D01*
D12*
%TO.C,R4*%
X158980000Y-70580000D02*
X158650000Y-70580000D01*
X158650000Y-64040000D02*
X158980000Y-64040000D01*
X161060000Y-70580000D02*
X161390000Y-70580000D01*
X161390000Y-64040000D02*
X161060000Y-64040000D01*
X161390000Y-70580000D02*
X161390000Y-64040000D01*
X158650000Y-70580000D02*
X158650000Y-64040000D01*
%TO.C,U5*%
X115630000Y-56395000D02*
X97730000Y-56395000D01*
X115630000Y-97275000D02*
X115630000Y-56395000D01*
X97730000Y-97275000D02*
X115630000Y-97275000D01*
X100220000Y-97215000D02*
X113140000Y-97215000D01*
X113140000Y-56455000D02*
X107680000Y-56455000D01*
X105680000Y-56455000D02*
X100220000Y-56455000D01*
X113140000Y-97215000D02*
X113140000Y-56455000D01*
X97730000Y-56395000D02*
X97730000Y-97275000D01*
X100220000Y-56455000D02*
X100220000Y-97215000D01*
X105680000Y-56455000D02*
G75*
G03*
X107680000Y-56455000I1000000J0D01*
G01*
%TO.C,R1*%
X147220000Y-64040000D02*
X147550000Y-64040000D01*
X147550000Y-70580000D02*
X147220000Y-70580000D01*
X149630000Y-70580000D02*
X149960000Y-70580000D01*
X147220000Y-70580000D02*
X147220000Y-64040000D01*
X149960000Y-70580000D02*
X149960000Y-64040000D01*
X149960000Y-64040000D02*
X149630000Y-64040000D01*
%TO.C,U1*%
X130690000Y-97225000D02*
X143610000Y-97225000D01*
X130690000Y-61545000D02*
X130690000Y-97225000D01*
X136150000Y-61545000D02*
X130690000Y-61545000D01*
X143610000Y-61545000D02*
X138150000Y-61545000D01*
X128200000Y-61485000D02*
X128200000Y-97285000D01*
X143610000Y-97225000D02*
X143610000Y-61545000D01*
X146100000Y-61485000D02*
X128200000Y-61485000D01*
X146100000Y-97285000D02*
X146100000Y-61485000D01*
X128200000Y-97285000D02*
X146100000Y-97285000D01*
X136150000Y-61545000D02*
G75*
G03*
X138150000Y-61545000I1000000J0D01*
G01*
%TO.C,U3*%
X151410000Y-74230000D02*
X149760000Y-74230000D01*
X149760000Y-74230000D02*
X149760000Y-92130000D01*
X149760000Y-92130000D02*
X155060000Y-92130000D01*
X155060000Y-74230000D02*
X153410000Y-74230000D01*
X155060000Y-92130000D02*
X155060000Y-74230000D01*
X151410000Y-74230000D02*
G75*
G03*
X153410000Y-74230000I1000000J0D01*
G01*
%TO.C,J2*%
X160497929Y-85345000D02*
X160895000Y-85345000D01*
X169555000Y-82805000D02*
X169555000Y-83565000D01*
X163555000Y-78025000D02*
X169555000Y-78025000D01*
X163555000Y-90425000D02*
X169555000Y-90425000D01*
X163555000Y-85345000D02*
X169555000Y-85345000D01*
X163555000Y-76775000D02*
X160895000Y-76775000D01*
X169555000Y-78485000D02*
X163555000Y-78485000D01*
X169555000Y-86105000D02*
X163555000Y-86105000D01*
X163555000Y-92135000D02*
X163555000Y-76775000D01*
X163555000Y-87885000D02*
X169555000Y-87885000D01*
X160895000Y-84455000D02*
X163555000Y-84455000D01*
X169555000Y-90425000D02*
X169555000Y-91185000D01*
X169555000Y-83565000D02*
X163555000Y-83565000D01*
X163555000Y-77905000D02*
X169555000Y-77905000D01*
X158185000Y-78105000D02*
X158185000Y-76835000D01*
X163555000Y-78145000D02*
X169555000Y-78145000D01*
X169555000Y-81025000D02*
X163555000Y-81025000D01*
X160497929Y-88645000D02*
X160895000Y-88645000D01*
X160895000Y-92135000D02*
X163555000Y-92135000D01*
X169555000Y-88645000D02*
X163555000Y-88645000D01*
X160497929Y-86105000D02*
X160895000Y-86105000D01*
X160497929Y-90425000D02*
X160895000Y-90425000D01*
X160497929Y-82805000D02*
X160895000Y-82805000D01*
X158185000Y-76835000D02*
X159455000Y-76835000D01*
X169555000Y-80265000D02*
X169555000Y-81025000D01*
X163555000Y-78385000D02*
X169555000Y-78385000D01*
X169555000Y-77725000D02*
X169555000Y-78485000D01*
X160497929Y-83565000D02*
X160895000Y-83565000D01*
X160895000Y-81915000D02*
X163555000Y-81915000D01*
X169555000Y-87885000D02*
X169555000Y-88645000D01*
X163555000Y-77785000D02*
X169555000Y-77785000D01*
X163555000Y-78265000D02*
X169555000Y-78265000D01*
X163555000Y-82805000D02*
X169555000Y-82805000D01*
X160497929Y-87885000D02*
X160895000Y-87885000D01*
X160895000Y-76775000D02*
X160895000Y-92135000D01*
X160565000Y-78485000D02*
X160895000Y-78485000D01*
X160497929Y-80265000D02*
X160895000Y-80265000D01*
X160895000Y-79375000D02*
X163555000Y-79375000D01*
X160895000Y-89535000D02*
X163555000Y-89535000D01*
X169555000Y-85345000D02*
X169555000Y-86105000D01*
X160497929Y-91185000D02*
X160895000Y-91185000D01*
X160895000Y-86995000D02*
X163555000Y-86995000D01*
X163555000Y-80265000D02*
X169555000Y-80265000D01*
X163555000Y-77725000D02*
X169555000Y-77725000D01*
X160497929Y-81025000D02*
X160895000Y-81025000D01*
X160565000Y-77725000D02*
X160895000Y-77725000D01*
X169555000Y-91185000D02*
X163555000Y-91185000D01*
%TO.C,J3*%
X107885000Y-67960000D02*
X110485000Y-67960000D01*
X110485000Y-65360000D02*
X113085000Y-65360000D01*
X107885000Y-73100000D02*
X113085000Y-73100000D01*
X110485000Y-67960000D02*
X110485000Y-65360000D01*
X107885000Y-65360000D02*
X109215000Y-65360000D01*
X107885000Y-66690000D02*
X107885000Y-65360000D01*
X107885000Y-67960000D02*
X107885000Y-73100000D01*
X113085000Y-65360000D02*
X113085000Y-73100000D01*
%TO.C,R3*%
X154840000Y-64040000D02*
X155170000Y-64040000D01*
X157580000Y-70580000D02*
X157580000Y-64040000D01*
X157250000Y-70580000D02*
X157580000Y-70580000D01*
X154840000Y-70580000D02*
X154840000Y-64040000D01*
X155170000Y-70580000D02*
X154840000Y-70580000D01*
X157580000Y-64040000D02*
X157250000Y-64040000D01*
%TO.C,J1*%
X157550000Y-56345000D02*
X157550000Y-53685000D01*
X155840000Y-53685000D02*
X155840000Y-47685000D01*
X152410000Y-56345000D02*
X152410000Y-53685000D01*
X149870000Y-56345000D02*
X149870000Y-53685000D01*
X150760000Y-47685000D02*
X151520000Y-47685000D01*
X148760000Y-53685000D02*
X148760000Y-47685000D01*
X148400000Y-53685000D02*
X148400000Y-47685000D01*
X150760000Y-59282071D02*
X150760000Y-58827929D01*
X153300000Y-47685000D02*
X154060000Y-47685000D01*
X157550000Y-53685000D02*
X147270000Y-53685000D01*
X156600000Y-47685000D02*
X156600000Y-53685000D01*
X153300000Y-53685000D02*
X153300000Y-47685000D01*
X154060000Y-56742071D02*
X154060000Y-56345000D01*
X148880000Y-53685000D02*
X148880000Y-47685000D01*
X151520000Y-56742071D02*
X151520000Y-56345000D01*
X148980000Y-56742071D02*
X148980000Y-56345000D01*
X148220000Y-47685000D02*
X148980000Y-47685000D01*
X148520000Y-53685000D02*
X148520000Y-47685000D01*
X148280000Y-53685000D02*
X148280000Y-47685000D01*
X148980000Y-47685000D02*
X148980000Y-53685000D01*
X148220000Y-53685000D02*
X148220000Y-47685000D01*
X147270000Y-53685000D02*
X147270000Y-56345000D01*
X154950000Y-56345000D02*
X154950000Y-53685000D01*
X147270000Y-56345000D02*
X157550000Y-56345000D01*
X156600000Y-59282071D02*
X156600000Y-58827929D01*
X150760000Y-56742071D02*
X150760000Y-56345000D01*
X148220000Y-56742071D02*
X148220000Y-56345000D01*
X148640000Y-53685000D02*
X148640000Y-47685000D01*
X155840000Y-59282071D02*
X155840000Y-58827929D01*
X155840000Y-47685000D02*
X156600000Y-47685000D01*
X151520000Y-59282071D02*
X151520000Y-58827929D01*
X153300000Y-59282071D02*
X153300000Y-58827929D01*
X151520000Y-47685000D02*
X151520000Y-53685000D01*
X154060000Y-47685000D02*
X154060000Y-53685000D01*
X150760000Y-53685000D02*
X150760000Y-47685000D01*
X154060000Y-59282071D02*
X154060000Y-58827929D01*
X148220000Y-59215000D02*
X148220000Y-58827929D01*
X148980000Y-59215000D02*
X148980000Y-58827929D01*
X153300000Y-56742071D02*
X153300000Y-56345000D01*
X147330000Y-61595000D02*
X147330000Y-60325000D01*
X155840000Y-56742071D02*
X155840000Y-56345000D01*
X156600000Y-56742071D02*
X156600000Y-56345000D01*
X148600000Y-61595000D02*
X147330000Y-61595000D01*
%TO.C,U2*%
X126885000Y-97215000D02*
X139805000Y-97215000D01*
X132345000Y-56455000D02*
X126885000Y-56455000D01*
X139805000Y-56455000D02*
X134345000Y-56455000D01*
X139805000Y-97215000D02*
X139805000Y-56455000D01*
X126885000Y-56455000D02*
X126885000Y-97215000D01*
X132345000Y-56455000D02*
G75*
G03*
X134345000Y-56455000I1000000J0D01*
G01*
%TO.C,R2*%
X151030000Y-64040000D02*
X151360000Y-64040000D01*
X151360000Y-70580000D02*
X151030000Y-70580000D01*
X151030000Y-70580000D02*
X151030000Y-64040000D01*
X153770000Y-64040000D02*
X153440000Y-64040000D01*
X153440000Y-70580000D02*
X153770000Y-70580000D01*
X153770000Y-70580000D02*
X153770000Y-64040000D01*
%TO.C,J5*%
X157480000Y-61655000D02*
X157420000Y-61655000D01*
X157480000Y-58995000D02*
X157420000Y-58995000D01*
X160080000Y-58995000D02*
X160080000Y-60325000D01*
X157420000Y-58995000D02*
X157420000Y-61655000D01*
X157480000Y-58995000D02*
X157480000Y-61655000D01*
X158750000Y-58995000D02*
X160080000Y-58995000D01*
%TO.C,C1*%
X153750000Y-95985000D02*
X153750000Y-95670000D01*
X148510000Y-93560000D02*
X148510000Y-93245000D01*
X153750000Y-93245000D02*
X148510000Y-93245000D01*
X148510000Y-95985000D02*
X148510000Y-95670000D01*
X153750000Y-95985000D02*
X148510000Y-95985000D01*
X153750000Y-93560000D02*
X153750000Y-93245000D01*
%TO.C,U4*%
X109490000Y-61535000D02*
X104030000Y-61535000D01*
X119440000Y-61475000D02*
X101540000Y-61475000D01*
X119440000Y-97275000D02*
X119440000Y-61475000D01*
X104030000Y-97215000D02*
X116950000Y-97215000D01*
X101540000Y-97275000D02*
X119440000Y-97275000D01*
X116950000Y-61535000D02*
X111490000Y-61535000D01*
X116950000Y-97215000D02*
X116950000Y-61535000D01*
X101540000Y-61475000D02*
X101540000Y-97275000D01*
X104030000Y-61535000D02*
X104030000Y-97215000D01*
X109490000Y-61535000D02*
G75*
G03*
X111490000Y-61535000I1000000J0D01*
G01*
%TO.C,J4*%
X134550000Y-66690000D02*
X134550000Y-65360000D01*
X137150000Y-65360000D02*
X139750000Y-65360000D01*
X134550000Y-65360000D02*
X135880000Y-65360000D01*
X134550000Y-73100000D02*
X139750000Y-73100000D01*
X139750000Y-65360000D02*
X139750000Y-73100000D01*
X134550000Y-67960000D02*
X134550000Y-73100000D01*
X134550000Y-67960000D02*
X137150000Y-67960000D01*
X137150000Y-67960000D02*
X137150000Y-65360000D01*
%TD*%
M02*
