%TF.GenerationSoftware,KiCad,Pcbnew,7.0.11+1*%
%TF.CreationDate,2024-05-13T22:14:03+02:00*%
%TF.ProjectId,QL_ROM_Switchable,514c5f52-4f4d-45f5-9377-697463686162,rev?*%
%TF.SameCoordinates,Original*%
%TF.FileFunction,Soldermask,Bot*%
%TF.FilePolarity,Negative*%
%FSLAX46Y46*%
G04 Gerber Fmt 4.6, Leading zero omitted, Abs format (unit mm)*
G04 Created by KiCad (PCBNEW 7.0.11+1) date 2024-05-13 22:14:03*
%MOMM*%
%LPD*%
G01*
G04 APERTURE LIST*
%ADD10C,1.600000*%
%ADD11O,1.600000X1.600000*%
%ADD12R,1.600000X1.600000*%
%ADD13R,1.700000X1.700000*%
%ADD14O,1.700000X1.700000*%
%ADD15C,1.700000*%
G04 APERTURE END LIST*
D10*
%TO.C,R4*%
X160020000Y-71120000D03*
D11*
X160020000Y-63500000D03*
%TD*%
D12*
%TO.C,U5*%
X99060000Y-57785000D03*
D11*
X99060000Y-60325000D03*
X99060000Y-62865000D03*
X99060000Y-65405000D03*
X99060000Y-67945000D03*
X99060000Y-70485000D03*
X99060000Y-73025000D03*
X99060000Y-75565000D03*
X99060000Y-78105000D03*
X99060000Y-80645000D03*
X99060000Y-83185000D03*
X99060000Y-85725000D03*
X99060000Y-88265000D03*
X99060000Y-90805000D03*
X99060000Y-93345000D03*
X99060000Y-95885000D03*
X114300000Y-95885000D03*
X114300000Y-93345000D03*
X114300000Y-90805000D03*
X114300000Y-88265000D03*
X114300000Y-85725000D03*
X114300000Y-83185000D03*
X114300000Y-80645000D03*
X114300000Y-78105000D03*
X114300000Y-75565000D03*
X114300000Y-73025000D03*
X114300000Y-70485000D03*
X114300000Y-67945000D03*
X114300000Y-65405000D03*
X114300000Y-62865000D03*
X114300000Y-60325000D03*
X114300000Y-57785000D03*
%TD*%
D10*
%TO.C,R1*%
X148590000Y-71120000D03*
D11*
X148590000Y-63500000D03*
%TD*%
D12*
%TO.C,U1*%
X129530000Y-62875000D03*
D11*
X129530000Y-65415000D03*
X129530000Y-67955000D03*
X129530000Y-70495000D03*
X129530000Y-73035000D03*
X129530000Y-75575000D03*
X129530000Y-78115000D03*
X129530000Y-80655000D03*
X129530000Y-83195000D03*
X129530000Y-85735000D03*
X129530000Y-88275000D03*
X129530000Y-90815000D03*
X129530000Y-93355000D03*
X129530000Y-95895000D03*
X144770000Y-95895000D03*
X144770000Y-93355000D03*
X144770000Y-90815000D03*
X144770000Y-88275000D03*
X144770000Y-85735000D03*
X144770000Y-83195000D03*
X144770000Y-80655000D03*
X144770000Y-78115000D03*
X144770000Y-75575000D03*
X144770000Y-73035000D03*
X144770000Y-70495000D03*
X144770000Y-67955000D03*
X144770000Y-65415000D03*
X144770000Y-62875000D03*
%TD*%
D12*
%TO.C,U3*%
X148600000Y-75560000D03*
D11*
X148600000Y-78100000D03*
X148600000Y-80640000D03*
X148600000Y-83180000D03*
X148600000Y-85720000D03*
X148600000Y-88260000D03*
X148600000Y-90800000D03*
X156220000Y-90800000D03*
X156220000Y-88260000D03*
X156220000Y-85720000D03*
X156220000Y-83180000D03*
X156220000Y-80640000D03*
X156220000Y-78100000D03*
X156220000Y-75560000D03*
%TD*%
D13*
%TO.C,J2*%
X159455000Y-78105000D03*
D14*
X159455000Y-80645000D03*
X159455000Y-83185000D03*
X159455000Y-85725000D03*
X159455000Y-88265000D03*
X159455000Y-90805000D03*
%TD*%
D13*
%TO.C,J3*%
X109215000Y-66690000D03*
D14*
X111755000Y-66690000D03*
X109215000Y-69230000D03*
X111755000Y-69230000D03*
X109215000Y-71770000D03*
X111755000Y-71770000D03*
%TD*%
D10*
%TO.C,R3*%
X156210000Y-71120000D03*
D11*
X156210000Y-63500000D03*
%TD*%
D13*
%TO.C,J1*%
X148600000Y-60325000D03*
D14*
X148600000Y-57785000D03*
X151140000Y-60325000D03*
X151140000Y-57785000D03*
X153680000Y-60325000D03*
X153680000Y-57785000D03*
X156220000Y-60325000D03*
X156220000Y-57785000D03*
%TD*%
D12*
%TO.C,U2*%
X125725000Y-57785000D03*
D11*
X125725000Y-60325000D03*
X125725000Y-62865000D03*
X125725000Y-65405000D03*
X125725000Y-67945000D03*
X125725000Y-70485000D03*
X125725000Y-73025000D03*
X125725000Y-75565000D03*
X125725000Y-78105000D03*
X125725000Y-80645000D03*
X125725000Y-83185000D03*
X125725000Y-85725000D03*
X125725000Y-88265000D03*
X125725000Y-90805000D03*
X125725000Y-93345000D03*
X125725000Y-95885000D03*
X140965000Y-95885000D03*
X140965000Y-93345000D03*
X140965000Y-90805000D03*
X140965000Y-88265000D03*
X140965000Y-85725000D03*
X140965000Y-83185000D03*
X140965000Y-80645000D03*
X140965000Y-78105000D03*
X140965000Y-75565000D03*
X140965000Y-73025000D03*
X140965000Y-70485000D03*
X140965000Y-67945000D03*
X140965000Y-65405000D03*
X140965000Y-62865000D03*
X140965000Y-60325000D03*
X140965000Y-57785000D03*
%TD*%
D10*
%TO.C,R2*%
X152400000Y-71120000D03*
D11*
X152400000Y-63500000D03*
%TD*%
D15*
%TO.C,J5*%
X158750000Y-60325000D03*
%TD*%
D10*
%TO.C,C1*%
X153630000Y-94615000D03*
X148630000Y-94615000D03*
%TD*%
D12*
%TO.C,U4*%
X102870000Y-62865000D03*
D11*
X102870000Y-65405000D03*
X102870000Y-67945000D03*
X102870000Y-70485000D03*
X102870000Y-73025000D03*
X102870000Y-75565000D03*
X102870000Y-78105000D03*
X102870000Y-80645000D03*
X102870000Y-83185000D03*
X102870000Y-85725000D03*
X102870000Y-88265000D03*
X102870000Y-90805000D03*
X102870000Y-93345000D03*
X102870000Y-95885000D03*
X118110000Y-95885000D03*
X118110000Y-93345000D03*
X118110000Y-90805000D03*
X118110000Y-88265000D03*
X118110000Y-85725000D03*
X118110000Y-83185000D03*
X118110000Y-80645000D03*
X118110000Y-78105000D03*
X118110000Y-75565000D03*
X118110000Y-73025000D03*
X118110000Y-70485000D03*
X118110000Y-67945000D03*
X118110000Y-65405000D03*
X118110000Y-62865000D03*
%TD*%
D13*
%TO.C,J4*%
X135880000Y-66690000D03*
D14*
X138420000Y-66690000D03*
X135880000Y-69230000D03*
X138420000Y-69230000D03*
X135880000Y-71770000D03*
X138420000Y-71770000D03*
%TD*%
M02*
